<svg width="30" height="32" viewBox="0 0 30 32" fill="none" xmlns="http://www.w3.org/2000/svg">
<path d="M22.5 3.88086C21.5054 3.88086 20.5516 4.28982 19.8483 5.01778C19.1451 5.74574 18.75 6.73307 18.75 7.76256V23.2894C18.75 24.3189 19.1451 25.3062 19.8483 26.0341C20.5516 26.7621 21.5054 27.1711 22.5 27.1711C23.4946 27.1711 24.4484 26.7621 25.1517 26.0341C25.8549 25.3062 26.25 24.3189 26.25 23.2894C26.25 22.2599 25.8549 21.2725 25.1517 20.5446C24.4484 19.8166 23.4946 19.4077 22.5 19.4077H7.5C6.50544 19.4077 5.55161 19.8166 4.84835 20.5446C4.14509 21.2725 3.75 22.2599 3.75 23.2894C3.75 24.3189 4.14509 25.3062 4.84835 26.0341C5.55161 26.7621 6.50544 27.1711 7.5 27.1711C8.49456 27.1711 9.44839 26.7621 10.1517 26.0341C10.8549 25.3062 11.25 24.3189 11.25 23.2894V7.76256C11.25 6.73307 10.8549 5.74574 10.1517 5.01778C9.44839 4.28982 8.49456 3.88086 7.5 3.88086C6.50544 3.88086 5.55161 4.28982 4.84835 5.01778C4.14509 5.74574 3.75 6.73307 3.75 7.76256C3.75 8.79205 4.14509 9.77938 4.84835 10.5073C5.55161 11.2353 6.50544 11.6443 7.5 11.6443H22.5C23.4946 11.6443 24.4484 11.2353 25.1517 10.5073C25.8549 9.77938 26.25 8.79205 26.25 7.76256C26.25 6.73307 25.8549 5.74574 25.1517 5.01778C24.4484 4.28982 23.4946 3.88086 22.5 3.88086Z" stroke="#54BD95" stroke-width="2" stroke-linecap="round" stroke-linejoin="round"/>
</svg>
