<svg width="30" height="32" viewBox="0 0 30 32" fill="none" xmlns="http://www.w3.org/2000/svg">
<path d="M26.512 20.5604C25.7168 22.5071 24.473 24.2225 22.8894 25.5566C21.3057 26.8907 19.4305 27.803 17.4276 28.2136C15.4247 28.6242 13.3551 28.5207 11.3997 27.9121C9.44436 27.3035 7.66281 26.2084 6.2108 24.7225C4.75879 23.2365 3.68055 21.405 3.07032 19.3881C2.4601 17.3712 2.33648 15.2302 2.71027 13.1524C3.08407 11.0746 3.9439 9.12318 5.21458 7.4688C6.48527 5.81442 8.12813 4.50744 9.99953 3.66211" stroke="#54BD95" stroke-width="2" stroke-linecap="round" stroke-linejoin="round"/>
<path d="M27.5 15.5269C27.5 13.8277 27.1767 12.1452 26.5485 10.5754C25.9203 9.00552 24.9996 7.57913 23.8388 6.37764C22.6781 5.17614 21.3001 4.22306 19.7835 3.57281C18.267 2.92257 16.6415 2.58789 15 2.58789V15.5269H27.5Z" stroke="#54BD95" stroke-width="2" stroke-linecap="round" stroke-linejoin="round"/>
</svg>
